#!OML:ASF E:/inclinewalkrobotboard/Project1/Captureday1/Session1/subject1.ASF
:FULLY-SPECIFIED
:DEGREES
226
root 0 0 0 -11.159658387801455 -37.52414905482086 -1.8589721945904385
lowerback -1.9116805417904068 -1.2294151571812186 1.0693267332443717
upperback -3.081272211086422 -1.2372285024008418 0.2612260662900331
thorax -2.1291083784095552 -0.5966344797891971 -0.01712338954836065
lowerneck -15.108272360171807 -1.6720146022325717 -7.013247970790714
upperneck -0.3648956107778716 -2.1268625529116543 4.6178425650827375
head 2.874827516080642 -0.7861837845480533 2.3730634490149267
rclavicle -1.1039969606268346E-14 2.1934952263258296E-17
rhumerus 3.223015353450628 -12.318036862297712 -67.21223444342304
rradius 18.238326125850286
rwrist 57.85490649402497
rhand -7.406793265790652 21.71244395635128
rfingers 7.125019999999914
rthumb 18.48521107483936 -7.9890795297042025
lclavicle -1.0465225844571556E-14 4.2383976297974245E-15
lhumerus -29.938455784826658 1.5849815830940734 80.5811614885099
lradius 27.163032063082305
lwrist -40.859093907628235
lhand -7.1738149189787395 14.50808988014348
lfingers 7.040602220612374
lthumb 18.386857391352805 48.91590057104051
rfemur 1.262468349759125 8.180505923951326 36.21685440694796
rtibia 24.50264312258317
rfoot -16.40888168201393 -5.110406827969539
rtoes 12.027734369073722
lfemur 20.643766789237226 -3.3154202283132754 -25.045965527176413
ltibia 31.91657785387542
lfoot -3.1784086461646766 -11.913663882938476
ltoes -17.49862445902943
227
root 0 0 0 -12.067216896841813 -37.53300961904982 -1.9911431714012275
lowerback -2.4771216458102376 -1.1294467289110475 1.215991618756087
upperback -3.1918089257162943 -1.0709931701016058 0.1878726389773444
thorax -1.9414164517678738 -0.5124052400008468 -0.1887807683116574
lowerneck -14.8701509887518 -1.669782487615942 -6.920893150441942
upperneck -0.5541805908944593 -2.160395067857661 4.456886000184575
head 2.7927168748190323 -0.8021512108601709 2.302565270127966
rclavicle -1.1194629683075952E-14 4.957179442759997E-17
rhumerus 3.4259781809442145 -12.19136758501862 -67.10207541093072
rradius 18.089712517842926
rwrist 57.84223737499991
rhand -7.347991253692749 21.675329374600047
rfingers 7.125019999999914
rthumb 18.540194465400397 -8.026233663449755
lclavicle -1.1034544436856046E-14 4.203080112803289E-15
lhumerus -29.999623039712397 1.9782429810299327 80.36799810705723
lradius 26.825877701234035
lwrist -40.92106449962
lhand -6.937679078220317 14.470466606447626
lfingers 7.041007536065799
lthumb 18.61631487376565 47.431244744220365
rfemur 2.3500187465595346 8.319708068457334 36.4823194455737
rtibia 24.299666947072456
rfoot -17.274714606929244 -5.156238510297143
rtoes 11.288350963270473
lfemur 20.114415628455717 -2.8968512649779585 -24.06671620253971
ltibia 36.30580345401495
lfoot -1.2759719149216462 -12.915910609593698
ltoes -17.508973721990362
228
root 0 0 0 -12.876725195931595 -37.83839049471535 -2.058184998401136
lowerback -2.8192009649374388 -1.0432968146544535 1.3440647171836488
upperback -3.248895589001116 -0.934672738727154 0.1319039889687551
thorax -1.8177689608582144 -0.4439843952260563 -0.3306551375054631
lowerneck -14.679802424391767 -1.666112648604156 -6.821392155373113
upperneck -0.71476885656147 -2.185061036466198 4.396374441926307
head 2.7210839736447214 -0.813438397801463 2.265452790066818
rclavicle -1.1308824189151507E-14 5.468304894461507E-17
rhumerus 3.554179518301576 -12.077454979340695 -67.0429680613806
rradius 17.975888955383397
rwrist 57.83892552912204
rhand -7.301214744657461 21.65087635864499
rfingers 7.125019999999915
rthumb 18.58403572265992 -8.05051534661466
lclavicle -1.1353264347335888E-14 4.156210799052758E-15
lhumerus -30.039334906717336 2.208796021483881 80.23724061967776
lradius 26.593968764165503
lwrist -40.98167081197923
lhand -6.777884080727802 14.445259707113934
lfingers 7.04088917976019
lthumb 18.76974916089341 46.49874618290447
rfemur 3.356312335929598 8.421914883190128 36.688391315702525
rtibia 24.177440782417786
rfoot -17.852074135725395 -5.127598566814106
rtoes 10.566010965115629
lfemur 19.217929394132582 -2.5703803092912385 -23.239856141764243
ltibia 39.48289850413106
lfoot 0.3101719302749544 -13.685227753947238
ltoes -17.351975650856794
229
root 0 0 0 -13.795402619519892 -38.24640011068424 -2.0420849365457396
lowerback -3.0886700744543205 -0.9457862694724577 1.5193279510850126
upperback -3.2726354327289537 -0.7820712482224047 0.07525554416458102
thorax -1.6980507385667933 -0.3680560373742168 -0.5019615768201522
lowerneck -14.434356275952897 -1.6254275736129968 -6.668266383547482
upperneck -0.8874210504338507 -2.1594131255179136 4.339501900235415
head 2.631063319086978 -0.7997963449021497 2.225408918872157
rclavicle -1.1406425655436837E-14 6.115705401951732E-17
rhumerus 3.6306326836154943 -11.922902242030135 -67.0171178709843
rradius 17.854964776389792
rwrist 57.8396958254867
rhand -7.249906743816673 21.623027081158106
rfingers 7.125019999999915
rthumb 18.63216536457594 -8.077849957733914
lclavicle -1.1592702035569063E-14 4.1299658463829815E-15
lhumerus -30.0856735678804 2.38801526082014 80.14130407933052
lradius 26.406923190652094
lwrist -41.04631445138993
lhand -6.6485886784315795 14.426925196401363
lfingers 7.040849226709596
lthumb 18.89406577637542 45.798771713296574
rfemur 4.572130398895776 8.533800894288763 36.89780502788842
rtibia 24.089331682600186
rfoot -18.387382183516408 -5.049788523568572
rtoes 9.692382857329138
lfemur 17.592212786198203 -2.2235421501946746 -22.253394989329124
ltibia 42.56152559342273
lfoot 2.178059049382025 -14.525582403598229
ltoes -17.013349740741457
230
root 0 0 0 -14.738284061330788 -38.65765712657266 -1.9065763406809713
lowerback -3.213524516268361 -0.8384980487131164 1.7574767989391482
upperback -3.247568518665139 -0.6150131469203143 0.01794591935163281
thorax -1.6031358037342174 -0.28585690043765016 -0.7126429864934427
lowerneck -14.14790904213849 -1.5289811831703564 -6.455722539714118
upperneck -1.1028370139625459 -2.044515943257851 4.2809057675587425
head 2.51357058921021 -0.7439247282047365 2.1842330639463787
rclavicle -1.1479619522864844E-14 5.89898025085218E-17
rhumerus 3.6477141014764785 -11.731381421325844 -67.02816122995446
rradius 17.731453408040537
rwrist 57.845327820583435
rhand -7.194435209738199 21.593293964321035
rfingers 7.125019999999915
rthumb 18.684249419047834 -8.106715133577172
lclavicle -1.1698535917549535E-14 4.1031207269793555E-15
lhumerus -30.14431660258966 2.4933267694344146 80.09001390612055
lradius 26.266973229770556
lwrist -41.10920705025637
lhand -6.542247261084321 14.41959328899653
lfingers 7.040635233251468
lthumb 18.995337082715483 45.30962349817317
rfemur 5.949534412514534 8.652551022202632 37.09429138632062
rtibia 24.048087471367094
rfoot -18.84291366591667 -4.923088560291069
rtoes 8.707139880235173
lfemur 14.967715803755935 -1.83240516054125 -21.02106572574246
ltibia 45.68060498621127
lfoot 4.484359374489882 -15.510791802246704
ltoes -16.455626314850974
231
root 0 0 0 -15.843521160600627 -38.94425563146736 -1.3457717784616334
lowerback -2.938440367471287 -0.6594787027124038 2.328362708391186
upperback -3.0732178861768173 -0.32965484922333477 -0.06047232163525107
thorax -1.5567638516614202 -0.1476849561988401 -1.1520387470130051
lowerneck -13.65055009340064 -1.1948120894642942 -6.006572498434604
upperneck -1.6185975605912706 -1.5436532811484507 4.123881618543246
head 2.2441527697458183 -0.5089159752555532 2.1148397511278745
rclavicle -1.1500746473614396E-14 3.909578210029163E-17
rhumerus 3.553674977642708 -11.393947500308618 -67.10104390240954
rradius 17.555232360414664
rwrist 57.853591501810826
rhand -7.1040215114664385 21.54173233297898
rfingers 7.125019999999915
rthumb 18.769272377763244 -8.156183195174105
lclavicle -1.153076435172093E-14 4.063131336119837E-15
lhumerus -30.26957141949952 2.4695532853562163 80.13268131904726
lradius 26.239610211874286
lwrist -41.15890447441518
lhand -6.442156355918524 14.437521400857907
lfingers 7.039988002576783
lthumb 19.088304337553772 45.064317827368534
rfemur 7.834428996305817 8.81100125914001 37.30721419629183
rtibia 24.11938702701983
rfoot -19.330998907416358 -4.721952628759059
rtoes 7.398444701707723
lfemur 9.170730737538099 -1.125923320150819 -18.780341662395415
ltibia 50.72121082825895
lfoot 8.551160324937404 -17.18178809273248
ltoes -15.193023161875429
